/* XPM */
static const char *icon[] = {
/* columns rows colors chars-per-pixel */
"48 48 144 2 ",
"   c None",
".  c black",
"X  c #010101",
"o  c #020202",
"O  c #040404",
"+  c gray2",
"@  c #060606",
"#  c #070707",
"$  c gray3",
"%  c #090909",
"&  c gray4",
"*  c #0B0B0B",
"=  c #0E0E0E",
"-  c gray6",
";  c #101010",
":  c #111111",
">  c gray8",
",  c gray11",
"<  c #1D1D1D",
"1  c gray12",
"2  c #202020",
"3  c #222222",
"4  c #232323",
"5  c #252525",
"6  c #272727",
"7  c gray16",
"8  c #2C2C2C",
"9  c #2D2D2D",
"0  c gray18",
"q  c #2F2F2F",
"w  c gray19",
"e  c #313131",
"r  c #353535",
"t  c #373737",
"y  c #393939",
"u  c #3A3A3A",
"i  c #3C3C3C",
"p  c #3E3E3E",
"a  c gray25",
"s  c gray26",
"d  c #434343",
"f  c gray27",
"g  c #464646",
"h  c #484848",
"j  c #4C4C4C",
"k  c #515151",
"l  c gray33",
"z  c #555555",
"x  c #565656",
"c  c #5A5A5A",
"v  c #5B5B5B",
"b  c gray36",
"n  c gray37",
"m  c #5F5F5F",
"M  c #626262",
"N  c #656565",
"B  c gray40",
"V  c gray42",
"C  c #6F6F6F",
"Z  c #717171",
"A  c #747474",
"S  c #797979",
"D  c #7B7B7B",
"F  c #7C7C7C",
"G  c gray49",
"H  c #808080",
"J  c gray52",
"K  c #898989",
"L  c gray55",
"P  c #929292",
"I  c #959595",
"U  c gray59",
"Y  c #979797",
"T  c #989898",
"R  c gray61",
"E  c #9D9D9D",
"W  c #9F9F9F",
"Q  c #A2A2A2",
"!  c gray64",
"~  c #A4A4A4",
"^  c #A5A5A5",
"/  c #A7A7A7",
"(  c gray66",
")  c gray67",
"_  c gray68",
"`  c #B1B1B1",
"'  c #B2B2B2",
"]  c #B6B6B6",
"[  c #B9B9B9",
"{  c gray73",
"}  c #BBBBBB",
"|  c gray",
" . c gray75",
".. c #C1C1C1",
"X. c gray76",
"o. c #C3C3C3",
"O. c gray77",
"+. c #C5C5C5",
"@. c #C6C6C6",
"#. c gray78",
"$. c #CBCBCB",
"%. c #CDCDCD",
"&. c gray81",
"*. c #D0D0D0",
"=. c gray82",
"-. c #D2D2D2",
";. c LightGray",
":. c #D5D5D5",
">. c gray84",
",. c #D7D7D7",
"<. c gray85",
"1. c gainsboro",
"2. c #DDDDDD",
"3. c gray87",
"4. c #DFDFDF",
"5. c #E1E1E1",
"6. c #E2E2E2",
"7. c gray89",
"8. c #E4E4E4",
"9. c gray90",
"0. c #E6E6E6",
"q. c #E7E7E7",
"w. c #E9E9E9",
"e. c #EAEAEA",
"r. c gray92",
"t. c #ECECEC",
"y. c #EEEEEE",
"u. c #EFEFEF",
"i. c gray94",
"p. c #F1F1F1",
"a. c gray95",
"s. c #F3F3F3",
"d. c #F4F4F4",
"f. c gray96",
"g. c #F6F6F6",
"h. c gray97",
"j. c #F8F8F8",
"k. c #F9F9F9",
"l. c gray98",
"z. c #FBFBFB",
"x. c gray99",
"c. c #FDFDFD",
"v. c #FEFEFE",
"b. c white",
/* pixels */
"                                                                                                ",
"                                                                                                ",
"                                      v.v.v.v.v.v.v.v.v.v.                                      ",
"                                v.v.v.v.v.v.v.v.v.v.v.v.v.v.v.v.                                ",
"                            v.v.v.v.v.v.v.v.z.z.v.v.v.v.v.v.v.v.v.v.                            ",
"                        v.v.v.v.v.v.v.v.v.v.v.v.v.v.v.v.v.v.v.v.v.v.v.v.                        ",
"                      v.v.v.v.v.v.v.v.v.v.v.v.v.v.v.v.v.v.v.v.v.v.v.v.v.v.                      ",
"                  v.v.v.v.v.v.v.v.v.v.v.v.v.v.v.v.v.v.v.v.v.v.v.v.v.v.v.v.v.z.                  ",
"                v.v.v.v.v.v.v.v.v.v.z.*.E n t 3 3 t n E *.z.v.v.v.v.v.v.v.v.v.z.                ",
"              v.v.v.v.v.v.v.v.v.z.3.A 3 + . . . . . . + 3 A 3.z.v.v.v.v.v.v.z.v.p.              ",
"              v.v.v.v.v.v.v.v.z.I 3 . . . . . . . . . . . . 3 I z.v.v.v.v.v.v.v.z.              ",
"            v.v.v.v.v.v.v.v.y.H - . . . . . . . . . . . . . . - H y.v.v.v.v.v.v.v.z.            ",
"          z.v.v.v.v.v.v.v.z.L $ . . . . . . . . . . . . . . . . $ L z.v.v.v.v.v.v.v.p.          ",
"          v.v.v.v.v.v.v.v.Q ; . . . . . . . . . . . . . . . . . . ; Q v.v.v.v.v.v.v.z.          ",
"        z.v.v.v.v.v.v.v.y.8 . . . . . . + 1 k S S k 1 + . . . . . . 9 y.v.v.v.v.v.v.v.p.        ",
"        v.v.v.v.v.v.v.v.I . . . . . . $ B <.z.v.v.z.<.B $ . . . . . . I v.v.v.v.v.v.v.z.        ",
"      z.v.z.v.v.v.v.v.9.u . . . . . $ I f.v.v.v.v.v.v.f.I $ . . . . . u 9.v.v.v.v.v.v.v.w.      ",
"      v.v.v.v.v.v.v.v...; . . . . . n p.v.v.z.O.] 9.v.v.p.n . . . . . ; ..v.v.v.v.v.v.v.p.      ",
"      v.v.v.v.v.v.v.v.I . . . . . ; O.v.v.v.f.n . t O.v.v.O.; . . . . . I v.v.v.v.v.v.v.z.      ",
"    p.v.z.v.v.v.v.v.v.Z . . . . . 9 f.v.z.w.O.9 . . p p.v.f.9 . . . . . Z v.v.v.v.v.v.v.v.3.    ",
"    f.v.v.v.v.v.v.v.v.M . . . . . f v.v.3.s 5 . . . $ <.v.v.f . . . . . M v.v.v.v.v.v.z.v.9.    ",
"    f.v.v.v.v.v.v.v.v.B . . . . . p v.v.5.; . . . . ; 5.v.v.p . . . . . B v.v.v.v.v.v.v.v.w.    ",
"    z.v.v.v.v.v.v.v.v.G . . . . . 3 w.v.z.V + . . + V z.v.w.3 . . . . . G v.v.v.v.v.v.v.v.p.    ",
"    z.v.v.v.v.v.v.v.v.Q . . . . . $ ) v.v.9.C > > C 9.v.v.) $ . . . . . Q v.v.v.v.v.v.z.v.p.    ",
"    z.v.v.v.v.v.v.v.v.*.1 . . . . . e 3.v.v.v.v.v.v.v.v.3.e . . . . . 1 *.v.v.v.v.v.v.v.v.p.    ",
"    z.v.v.v.v.v.v.v.v.y.x . . . . . . x ,.v.v.v.v.v.v.,.x . . . . . . x p.v.v.v.v.v.v.v.v.p.    ",
"    f.v.v.v.v.v.v.v.v.v.} + . . . . . . e E 5.f.f.5.E e . . . . . . + } v.v.v.v.v.v.v.v.v.w.    ",
"    y.v.v.v.v.v.v.v.v.v.z.x . . . . . . . + ; 5 5 ; + . . . . . . . x z.v.v.v.v.v.v.v.v.v.5.    ",
"    9.v.z.v.v.v.v.v.v.v.v.&.9 . . . . . . . . . . . . . . . . . . 9 &.v.v.v.v.v.v.v.v.v.v.*.    ",
"      v.v.v.v.v.v.v.v.v.v.v.} 1 . . . . . . . . . . . . . . . . , } v.v.v.v.v.v.v.v.v.v.z.      ",
"      z.v.v.v.v.v.v.v.v.v.v.z...9 . . . . . . . . . . . . . . 9 ..z.v.v.v.v.v.v.v.v.v.v.y.      ",
"      w.v.z.v.v.v.v.v.v.v.v.v.v.&.v $ . . . . . . . . . . $ v &.v.v.v.v.v.v.v.v.v.v.v.v.<.      ",
"        v.v.v.v.v.v.v.v.v.v.v.v.v.z. .v 1 . . . . . . 1 v  .z.v.v.v.v.v.v.v.v.v.v.v.v.f.        ",
"        y.v.v.v.v.v.v.v.v.v.v.v.v.v.v.p.3.} P G G P } 3.p.v.v.v.v.v.v.v.v.v.v.v.v.v.v.5.        ",
"          z.v.v.v.v.v.v.v.v.z.} } z.v.v.v.v.v.v.v.v.v.v.v.v.z.,.E f.v.v.v.v.v.v.v.v.f.          ",
"          9.v.v.v.v.v.v.v.v.3.9 + f / 3.z.v.v.v.v.v.v.z.9.' n - $ ' v.v.v.v.v.v.v.v.<.          ",
"            f.v.v.v.v.v.v.z.G . . . $ 8 j S I / ) E J x e - . . . s 9.v.v.v.v.z.v.y.            ",
"            ] z.v.v.v.v.v.O.1 . . . . . . . . . . . . . . . . . . + K v.v.v.v.v.f._             ",
"              O.z.v.v.v.z.h . . . . . . . . . . . . . . . . . . . . > 9.v.v.v.z. .              ",
"                $.z.v.z.f.s 1 1 1 1 1 1 1 1 , , 1 , 1 1 1 1 1 1 1 1 u y.z.v.z.O.                ",
"                  ..f.v.v.v.v.v.v.v.v.v.v.v.v.v.v.v.v.v.v.v.v.v.v.v.v.v.v.f. .                  ",
"                    _ y.v.v.v.v.v.v.v.v.v.v.v.v.v.v.v.v.v.v.v.v.v.v.v.v.y.)                     ",
"                        ,.f.v.v.v.v.v.v.v.v.v.v.v.v.v.v.v.v.v.v.v.v.f.,.                        ",
"                          / 3.f.v.v.v.v.v.v.v.v.z.v.v.v.v.v.v.v.f.3./                           ",
"                                *.w.f.z.v.v.v.v.v.v.v.v.z.f.y.*.                                ",
"                                      ..,.5.w.y.y.w.5.,...                                      ",
"                                                                                                ",
"                                                                                                "
};
